# xmcd
#
# Track frame offsets: 
#        150
#        9969
#        22179
#        35846
#        50004
#        60124
#        73470
#        84210
#        96563
#        108433
#
# Disc length: 1611 seconds
#
# Revision: 1
# Processed by: cddbd v1.5.2PL0 Copyright (c) Steve Scherf et al.
# Submitted via: ExactAudioCopyFreeDBPlugin 1.0
#
DISCID=8406490a
DTITLE=Orbison, Roy - The Fastest Guitar Alive
DYEAR=1968
DGENRE=Rock
TTITLE0=Whirlwind
TTITLE1=Medicine Man
TTITLE2=River
TTITLE3=The Fastest Guitar Alive
TTITLE4=Rollin' On
TTITLE5=Pistolero
TTITLE6=Good Time Party
TTITLE7=Heading South
TTITLE8=Best Friend
TTITLE9=There Won't Be Many Coming Home
EXTD=YEAR: 1968
EXTT0=
EXTT1=
EXTT2=
EXTT3=
EXTT4=
EXTT5=
EXTT6=
EXTT7=
EXTT8=
EXTT9=
PLAYORDER=
